<svg xmlns="http://www.w3.org/2000/svg" viewBox="0 0 300 64">
  <defs>
    <linearGradient id="bg" x1="0" y1="0" x2="1" y2="1">
      <stop offset="0%" stop-color="#7c3aed"/>
      <stop offset="100%" stop-color="#a78bfa"/>
    </linearGradient>
    <linearGradient id="dots" x1="0" y1="0" x2="1" y2="0">
      <stop offset="0%" stop-color="#fff" stop-opacity="0.5"/>
      <stop offset="50%" stop-color="#fff" stop-opacity="0.8"/>
      <stop offset="100%" stop-color="#fff" stop-opacity="1"/>
    </linearGradient>
  </defs>
  <rect x="2" y="2" width="52" height="52" rx="12" fill="url(#bg)"/>
  <rect x="5" y="5" width="46" height="46" rx="10" fill="none" stroke="rgba(255,255,255,0.12)" stroke-width="1.2"/>
  <path d="M25 11a1.5 1.5 0 0 0-1.5 1.5v8a1.5 1.5 0 0 0 1.5 1.5h2l2.5 2.5v-2.5h6a1.5 1.5 0 0 0 1.5-1.5v-8a1.5 1.5 0 0 0-1.5-1.5H25z" fill="rgba(255,255,255,0.08)"/>
  <path d="M18 15a1.5 1.5 0 0 0-1.5 1.5v8a1.5 1.5 0 0 0 1.5 1.5h3l3 3v-3h7a1.5 1.5 0 0 0 1.5-1.5v-8a1.5 1.5 0 0 0-1.5-1.5H18z" fill="rgba(255,255,255,0.14)"/>
  <path d="M9 19a1.5 1.5 0 0 0-1.5 1.5v9a1.5 1.5 0 0 0 1.5 1.5h3l2.5 2.5v-2.5h10a1.5 1.5 0 0 0 1.5-1.5v-9a1.5 1.5 0 0 0-1.5-1.5H9z" fill="none" stroke="#fff" stroke-width="1.8" stroke-linecap="round" stroke-linejoin="round"/>
  <circle cx="14" cy="24.5" r="1.6" fill="url(#dots)"/>
  <circle cx="21" cy="24.5" r="1.6" fill="url(#dots)"/>
  <circle cx="28" cy="24.5" r="1.6" fill="url(#dots)"/>
  <text x="64" y="38" font-family="'Brush Script MT','Lucida Handwriting',cursive" font-size="26" fill="#8B5CF6">𝓣</text>
  <text x="82" y="38" font-family="-apple-system,BlinkMacSystemFont,'Segoe UI','PingFang SC','Microsoft YaHei',sans-serif" font-size="22" font-weight="700" fill="#1a1a1a">hink</text>
  <text x="128" y="38" font-family="'Brush Script MT','Lucida Handwriting',cursive" font-size="26" fill="#8B5CF6">𝓢</text>
  <text x="146" y="38" font-family="-apple-system,BlinkMacSystemFont,'Segoe UI','PingFang SC','Microsoft YaHei',sans-serif" font-size="22" font-weight="700" fill="#1a1a1a">hare</text>
</svg>
